<?xml version="1.0" encoding="us-ascii" standalone="no"?><svg xmlns="http://www.w3.org/2000/svg" xmlns:xlink="http://www.w3.org/1999/xlink" contentStyleType="text/css" height="648px" preserveAspectRatio="none" style="width:509px;height:648px;background:#FFFFFF;" version="1.1" viewBox="0 0 509 648" width="509px" zoomAndPan="magnify"><defs/><g><!--cluster Sistema de Parqueadero--><g id="cluster_Sistema de Parqueadero"><rect fill="none" height="635" rx="2.5" ry="2.5" style="stroke:#181818;stroke-width:1.0;" width="258" x="245" y="7"/><text fill="#000000" font-family="sans-serif" font-size="14" font-weight="bold" lengthAdjust="spacing" textLength="172" x="288" y="23.5332">Sistema de Parqueadero</text></g><g id="elem_UC1"><ellipse cx="374.0887" cy="215.0177" fill="#F1F1F1" rx="68.0887" ry="16.0177" style="stroke:#181818;stroke-width:0.5;"/><text fill="#000000" font-family="sans-serif" font-size="14" lengthAdjust="spacing" textLength="82" x="330.0887" y="219.5343">Iniciar sesi&#243;n</text></g><g id="elem_UC2"><ellipse cx="373.8903" cy="291.0781" fill="#F1F1F1" rx="110.8903" ry="24.5781" style="stroke:#181818;stroke-width:0.5;"/><text fill="#000000" font-family="sans-serif" font-size="14" lengthAdjust="spacing" textLength="185" x="281.3903" y="294.8066">Registrar ingreso de veh&#237;culo</text></g><g id="elem_UC3"><ellipse cx="373.8456" cy="374.1691" fill="#F1F1F1" rx="106.3456" ry="23.6691" style="stroke:#181818;stroke-width:0.5;"/><text fill="#000000" font-family="sans-serif" font-size="14" lengthAdjust="spacing" textLength="175" x="286.3456" y="377.8976">Registrar salida de veh&#237;culo</text></g><g id="elem_UC4"><ellipse cx="374.1774" cy="458.0355" fill="#F1F1F1" rx="113.1774" ry="25.0355" style="stroke:#181818;stroke-width:0.5;"/><text fill="#000000" font-family="sans-serif" font-size="14" lengthAdjust="spacing" textLength="190" x="279.1774" y="461.764">Consultar bloques disponibles</text></g><g id="elem_UC5"><ellipse cx="373.9525" cy="64.7905" fill="#F1F1F1" rx="96.9525" ry="21.7905" style="stroke:#181818;stroke-width:0.5;"/><text fill="#000000" font-family="sans-serif" font-size="14" lengthAdjust="spacing" textLength="154" x="296.9525" y="68.519">Ver historial de registros</text></g><g id="elem_UC6"><ellipse cx="373.8041" cy="534.8608" fill="#F1F1F1" rx="69.8041" ry="16.3608" style="stroke:#181818;stroke-width:0.5;"/><text fill="#000000" font-family="sans-serif" font-size="14" lengthAdjust="spacing" textLength="87" x="327.3041" y="539.3774">Crear usuario</text></g><g id="elem_UC7"><ellipse cx="373.9267" cy="605.7853" fill="#F1F1F1" rx="84.4267" ry="19.2853" style="stroke:#181818;stroke-width:0.5;"/><text fill="#000000" font-family="sans-serif" font-size="14" lengthAdjust="spacing" textLength="125" x="311.4267" y="609.5139">Administrar bloques</text></g><g id="elem_UC8"><ellipse cx="374.1965" cy="143.2393" fill="#F1F1F1" rx="91.6965" ry="20.7393" style="stroke:#181818;stroke-width:0.5;"/><text fill="#000000" font-family="sans-serif" font-size="14" lengthAdjust="spacing" textLength="142" x="303.1965" y="146.9678">Ver todos los registros</text></g><!--entity Usuario--><g id="elem_Usuario"><ellipse cx="177" cy="260.5" fill="#F1F1F1" rx="8" ry="8" style="stroke:#181818;stroke-width:0.5;"/><path d="M177,268.5 L177,295.5 M164,276.5 L190,276.5 M177,295.5 L164,310.5 M177,295.5 L190,310.5 " fill="none" style="stroke:#181818;stroke-width:0.5;"/><text fill="#000000" font-family="sans-serif" font-size="14" lengthAdjust="spacing" textLength="48" x="153" y="326.5332">Usuario</text></g><!--entity Administrador--><g id="elem_Administrador"><ellipse cx="49.5" cy="504.5" fill="#F1F1F1" rx="8" ry="8" style="stroke:#181818;stroke-width:0.5;"/><path d="M49.5,512.5 L49.5,539.5 M36.5,520.5 L62.5,520.5 M49.5,539.5 L36.5,554.5 M49.5,539.5 L62.5,554.5 " fill="none" style="stroke:#181818;stroke-width:0.5;"/><text fill="#000000" font-family="sans-serif" font-size="14" lengthAdjust="spacing" textLength="87" x="6" y="570.5332">Administrador</text></g><!--link Usuario to UC1--><g id="link_Usuario_UC1"><path d="M201.14,271.46 C211.55,263.51 224.32,254.84 237,249 C262.31,237.34 286.3084,230.5447 311.6084,225.2247 " fill="none" id="Usuario-to-UC1" style="stroke:#181818;stroke-width:1.0;"/><polygon fill="#181818" points="317.48,223.99,307.8495,221.9276,312.587,225.0189,309.4957,229.7564,317.48,223.99" style="stroke:#181818;stroke-width:1.0;"/></g><!--link Usuario to UC2--><g id="link_Usuario_UC2"><path d="M201.13,291 C217.07,291 233.54,291 256.99,291 " fill="none" id="Usuario-to-UC2" style="stroke:#181818;stroke-width:1.0;"/><polygon fill="#181818" points="262.99,291,253.99,287,257.99,291,253.99,295,262.99,291" style="stroke:#181818;stroke-width:1.0;"/></g><!--link Usuario to UC3--><g id="link_Usuario_UC3"><path d="M201.28,310.25 C211.71,318.15 224.47,326.86 237,333 C256.82,342.71 273.6463,348.9485 294.6463,355.1585 " fill="none" id="Usuario-to-UC3" style="stroke:#181818;stroke-width:1.0;"/><polygon fill="#181818" points="300.4,356.86,292.9038,350.472,295.6053,355.4421,290.6351,358.1436,300.4,356.86" style="stroke:#181818;stroke-width:1.0;"/></g><!--link Usuario to UC4--><g id="link_Usuario_UC4"><path d="M187.67,330.22 C196.33,357.55 211.65,392.92 237,415 C251.01,427.2 262.8234,433.9394 280.5234,440.1994 " fill="none" id="Usuario-to-UC4" style="stroke:#181818;stroke-width:1.0;"/><polygon fill="#181818" points="286.18,442.2,279.0288,435.428,281.4661,440.5328,276.3613,442.9702,286.18,442.2" style="stroke:#181818;stroke-width:1.0;"/></g><!--link Usuario to UC5--><g id="link_Usuario_UC5"><path d="M179.96,251.64 C184.17,209.67 197.18,143.99 237,105 C251.33,90.97 264.5889,83.5962 283.8189,77.6362 " fill="none" id="Usuario-to-UC5" style="stroke:#181818;stroke-width:1.0;"/><polygon fill="#181818" points="289.55,75.86,279.7693,74.7037,284.7741,77.3402,282.1376,82.3451,289.55,75.86" style="stroke:#181818;stroke-width:1.0;"/></g><!--link Usuario to UC8--><g id="link_Usuario_UC8"><path d="M190.09,251.97 C199.35,228.23 214.42,199.09 237,181 C253.55,167.74 268.6553,160.6928 289.0653,155.0728 " fill="none" id="Usuario-to-UC8" style="stroke:#181818;stroke-width:1.0;"/><polygon fill="#181818" points="294.85,153.48,285.111,152.0128,290.0294,154.8074,287.2348,159.7257,294.85,153.48" style="stroke:#181818;stroke-width:1.0;"/></g><!--link Administrador to UC6--><g id="link_Administrador_UC6"><path d="M93.33,535 C147.04,535 233.83,535 297.71,535 " fill="none" id="Administrador-to-UC6" style="stroke:#181818;stroke-width:1.0;"/><polygon fill="#181818" points="303.71,535,294.71,531,298.71,535,294.71,539,303.71,535" style="stroke:#181818;stroke-width:1.0;"/></g><!--link Administrador to UC7--><g id="link_Administrador_UC7"><path d="M93.33,544.43 C149.53,556.8 242.6403,577.3003 306.5203,591.3603 " fill="none" id="Administrador-to-UC7" style="stroke:#181818;stroke-width:1.0;"/><polygon fill="#181818" points="312.38,592.65,304.4502,586.8089,307.4969,591.5752,302.7306,594.6219,312.38,592.65" style="stroke:#181818;stroke-width:1.0;"/></g><!--link Administrador to Usuario--><g id="link_Administrador_Usuario"><path d="M70.66,495.8 C94.08,450.26 129.7454,380.9355 153.1454,335.4455 " fill="none" id="Administrador-to-Usuario" style="stroke:#181818;stroke-width:1.0;"/><polygon fill="#181818" points="155.89,330.11,148.2162,336.2835,153.6029,334.5562,155.3301,339.9429,155.89,330.11" style="stroke:#181818;stroke-width:1.0;"/></g><!--SRC=[TL7BJWCn3BpdAwpUUw0Fw0a9zSGDKPMxkp5Rgzcus5aaXFWaJdn2Vuni6q2xBP5ocCcCnx43FIT80ihrDe5dfIgnH6SxZdjKR62FrGvhMgMtGD0zOwm3EOTL4eMrjQWi1TtvXYDRKlIYpXKhZ5QPemR14poWlhI4dbH6yEuWdzQeGiko-yWLeuAHyU4hZW0DrikhlkYHwcE20iTQoQIh-ahRmsVL1YcUoNyUmy0UBrccVSjIehKXPSicIExOyd1iBv4tWQnOPdtB4obiSuueO-WYz1GhF_gv6sGevVhjQOH5SzsN_4tqjv4Yl3aFJ-B58EGxJ5wu3-VAhc0ylZsEjOyd0pmTuDa0pmTuuLnl_HtTVUUCFFP-WJrL-mO0]--></g></svg>